<svg xmlns="http://www.w3.org/2000/svg" width="70" height="58.71" viewBox="0 0 70 58.71">
  <path id="qoute" d="M229.19,275.452a22.581,22.581,0,0,1,22.58-22.58,4.517,4.517,0,0,1,4.517,4.516,4.619,4.619,0,0,1-4.573,4.516,13.548,13.548,0,0,0-13.492,13.548v2.258H251.77a6.774,6.774,0,0,1,6.775,6.774v20.323a6.775,6.775,0,0,1-6.775,6.774H235.964a6.775,6.775,0,0,1-6.774-6.774Zm40.645,29.354a6.775,6.775,0,0,0,6.774,6.774h15.807a6.775,6.775,0,0,0,6.774-6.774V284.484a6.774,6.774,0,0,0-6.774-6.774H278.867v-2.258A13.548,13.548,0,0,1,292.359,261.9a4.619,4.619,0,0,0,4.573-4.516,4.515,4.515,0,0,0-4.516-4.516,22.581,22.581,0,0,0-22.581,22.58Z" transform="translate(-229.19 -252.871)"/>
</svg>
